<?xml version="1.0" encoding="UTF-8"?>
<svg width="28px" height="28px" viewBox="0 0 28 28" version="1.1" xmlns="http://www.w3.org/2000/svg" xmlns:xlink="http://www.w3.org/1999/xlink">
    <!-- Generator: Sketch 52.4 (67378) - http://www.bohemiancoding.com/sketch -->
    <title>icon-arrows-merge</title>
    <desc>Created with Sketch.</desc>
    <g id="About/Team" stroke="none" stroke-width="1" fill="none" fill-rule="evenodd">
        <g id="Landing" transform="translate(-722.000000, -4605.000000)" fill="#00073D">
            <g id="Group-4" transform="translate(93.000000, 4517.000000)">
                <g id="icon-arrows-merge" transform="translate(628.000000, 88.000000)">
                    <path d="M12.2727273,5.45454545 L17.7272727,5.45454545 L17.7272727,7.99090909 C17.7286118,10.8803256 18.8761921,13.6511924 20.9181818,15.6954545 L28.2409091,23.0181818 C28.7696231,23.5500511 28.7696231,24.4090398 28.2409091,24.9409091 L26.3045455,26.8772727 C25.7726762,27.4059867 24.9136874,27.4059867 24.3818182,26.8772727 L17.0590909,19.5545455 C13.9944373,16.4864806 12.2729297,12.3273966 12.2727273,7.99090909 L12.2727273,5.45454545 Z" id="Path" fill-opacity="0.5"></path>
                    <path d="M17.6590909,9.54545455 C17.2963618,13.3284803 15.6282014,16.8672947 12.9409091,19.5545455 L5.61818182,26.8772727 C5.08631256,27.4059867 4.2273238,27.4059867 3.69545455,26.8772727 L1.75909091,24.9409091 C1.23037692,24.4090398 1.23037692,23.5500511 1.75909091,23.0181818 L9.08181818,15.6954545 C10.7454579,14.031461 11.8264959,11.8741683 12.1636364,9.54545455 L8.18181818,9.54545455 C7.63626114,9.53779082 7.14778855,9.20567141 6.94004732,8.70115699 C6.73230608,8.19664256 6.84529129,7.61686406 7.22727273,7.22727273 L14.0454545,0.409090909 C14.5756957,-0.110649377 15.4243043,-0.110649377 15.9545455,0.409090909 L22.7727273,7.22727273 C23.1547087,7.61686406 23.2676939,8.19664256 23.0599527,8.70115699 C22.8522114,9.20567141 22.3637389,9.53779082 21.8181818,9.54545455 L17.6590909,9.54545455 Z" id="Path"></path>
                </g>
            </g>
        </g>
    </g>
</svg>